<svg width="60" height="51" viewBox="0 0 60 51" fill="none" xmlns="http://www.w3.org/2000/svg">
<path d="M22.5 51L0.327087 14.5031L18.5 20.5L22.5 51Z" fill="#7DDA86"/>
<path d="M59.0124 24L24.5 51L40 23.739L59.0124 24Z" fill="#39B54A"/>
<path d="M31.5 2L39.5 22L20.5 19L31.5 2Z" fill="#7EDA87"/>
<path d="M19.5 19L1 11.5L17.5824 0L19.5 19Z" fill="#39B44A"/>
<path d="M20 19L18 0L31 2L20 19Z" fill="#FAFCFA"/>
<path d="M40.0519 21.9497L32 2L49 6L40.0519 21.9497Z" fill="#39B44A"/>
<path d="M41 22L49 6.5L58.5764 20.5975L41 22Z" fill="#F9FBF9"/>
<path d="M23.5 51L19.5721 20.5928L38.5 23.5L23.5 51Z" fill="#FCFCFC"/>
</svg>
