<svg width="260" height="294" viewBox="0 0 260 294" fill="none" xmlns="http://www.w3.org/2000/svg">
<path d="M90.418 40.5722C81.3097 35.2446 72.1865 29.9396 63.0971 24.5746C61.3588 23.5496 60.7543 23.9588 59.9133 25.8173C57.9009 30.2775 55.7121 34.7003 53.1628 38.8752C45.3837 51.6327 33.989 59.8999 19.9062 64.4465C16.9214 65.4114 16.5761 66.4514 17.7287 69.132C20.8974 76.5057 23.8333 83.977 26.8632 91.4108C31.2596 104.345 39.1101 115.255 47.535 125.711C56.1439 136.396 65.2446 146.687 75.0962 156.276C76.4778 157.62 77.683 159.208 79.6991 159.704C86.8588 166.244 93.9621 172.848 101.238 179.253C102.342 180.225 104.531 181.036 105.777 180.616C127.076 173.434 145.439 161.754 158.426 143.15C162.841 136.824 165.259 129.03 168.131 121.724C169.903 117.211 169.509 112.695 165.33 109.21C164.32 108.37 163.625 107.149 162.784 106.106C160.066 103.729 156.732 104.649 153.785 104.897C147.733 105.411 143.389 103.245 139.286 98.837C116.669 74.5497 90.1514 54.914 63.2322 35.7853C62.8755 35.53 62.425 35.4136 62.1172 35.0757C62.624 35.0607 63.0407 35.3648 63.5251 35.4399C70.9213 36.5962 78.0171 38.9878 85.2894 40.6435C86.9714 41.034 88.736 41.965 90.418 40.5722Z" fill="#989898"/>
<path d="M90.4179 40.5722C80.0369 38.0906 69.6597 35.6089 59.2787 33.131C59.1473 33.4088 59.0197 33.6904 58.8883 33.9682C65.7927 39.0179 72.6482 44.1352 79.6089 49.1023C102 65.0698 122.683 83.0047 141.583 102.974C143.952 105.475 146.419 106.466 149.817 106.241C154.123 105.952 158.459 106.132 162.784 106.113C177.855 105.734 192.925 105.359 207.995 104.968C208.855 104.946 209.715 104.807 210.574 104.72C210.116 104.029 209.801 103.147 209.174 102.67C183.531 83.0648 157.325 64.3002 126.9 52.6465C114.957 48.0661 102.593 44.5632 90.4179 40.5722Z" fill="#E4190A"/>
<path d="M201.759 162.726C192.763 149.24 183.771 135.75 174.746 122.287C174.404 121.777 173.71 121.502 173.18 121.12C172.951 121.656 172.632 122.175 172.501 122.734C164.977 155.217 141.876 172.825 113.121 185.102C112.501 185.365 108.784 185.185 111.934 187.445C123.776 195.941 135.7 204.321 147.59 212.742C149.362 211.838 148.848 210.201 148.75 208.793C148.277 201.922 148.807 195.037 148.427 188.173C148.255 185.031 149.415 184.1 152.362 184.843C157.727 186.195 163.16 187.246 168.585 188.32C173.665 189.326 174.798 188.305 174.521 183.082C174.284 178.607 173.616 174.166 173.105 169.713C172.527 164.66 173.06 164.01 178.267 163.95C184.395 163.879 190.526 163.972 196.653 163.905C198.421 163.894 200.276 164.059 201.759 162.726Z" fill="#E4E4E4"/>
<path d="M212.684 226.814C211.28 224.445 209.861 222.083 208.479 219.703C208.134 219.11 207.901 218.457 207.619 217.83C208.385 218.168 209.155 218.509 209.921 218.847C215.151 214.714 216.705 208.316 219.776 202.853C215.241 196.767 210.668 190.712 206.189 184.588C204.432 182.185 202.374 180.946 199.315 181.716C198.173 182.001 196.953 182.013 195.763 182.046C188.374 182.253 188.314 182.245 188.498 189.863C188.652 196.268 188.874 202.677 189.264 209.074C189.463 212.322 189.091 213.681 185.292 212.217C178.77 209.705 172.009 207.82 165.42 205.481C162.923 204.595 162.221 205.219 162.416 207.719C162.728 211.729 162.765 215.761 163.212 219.752C163.362 221.107 164.113 222.65 165.078 223.627C182.536 241.242 197.554 260.904 212.842 280.345C213.078 280.645 213.465 280.821 214.366 281.493C208.704 263.78 200.411 248.042 191.764 232.28C195.714 235.918 199.66 239.56 203.61 243.198C209.32 239.222 212.684 233.947 212.684 226.814Z" fill="#A21722"/>
<path d="M79.699 159.708C70.557 149.691 61.3211 139.749 52.2917 129.631C42.6128 118.781 34.7585 106.673 28.2822 93.6635C27.8879 92.8751 27.3398 92.1618 26.863 91.4109C29.3822 102.423 31.6086 113.513 34.4807 124.435C40.24 146.349 48.0004 167.588 57.0035 188.373C57.7994 190.205 59.0684 191.834 60.1196 193.557C61.1521 191.992 62.2709 190.475 63.1983 188.846C68.7248 179.148 74.2025 169.424 79.699 159.708Z" fill="#BB1600"/>
<path d="M51.1281 19.033C36.0879 11.4904 20.5971 5.07785 4.37053 0.550022C0.139298 -0.63262 -0.465142 -0.122022 0.263216 4.20682C1.24687 10.0562 2.47835 15.8643 3.60092 21.6912C5.56824 25.836 7.23892 30.0898 9.67178 34.0507C17.282 46.4516 26.6981 47.3076 39.602 38.571C45.3238 34.7002 48.5864 28.3478 51.3309 21.984C51.7551 20.9966 51.8978 19.9679 51.1281 19.033Z" fill="#E4190A"/>
<path d="M219.776 202.85C218.643 204.396 217.385 205.868 216.405 207.509C214.171 211.245 212.072 215.063 209.917 218.847C225.952 235.637 241.988 252.427 258.034 269.205C258.533 269.727 259.138 270.151 259.693 270.621C259.588 269.825 259.667 268.942 259.356 268.24C248.937 244.768 236.213 222.684 219.776 202.85Z" fill="#A5401F"/>
<path d="M212.684 226.814C209.662 232.273 206.636 237.736 203.613 243.195C217.632 259.218 231.644 275.246 245.686 291.247C246.335 291.991 247.247 292.505 248.04 293.125C248.051 292.186 248.347 291.139 248.032 290.328C239.187 267.527 228.051 245.988 212.684 226.814Z" fill="#A64A1E"/>
<path d="M201.759 162.726C193.12 162.662 184.473 162.775 175.846 162.456C172.208 162.32 170.804 162.989 171.434 167.006C172.354 172.878 172.527 178.866 173.304 184.768C173.695 187.745 172.61 187.982 170.177 187.411C163.374 185.819 156.503 184.513 149.741 182.771C146.787 182.009 146.539 182.981 146.655 185.508C147.072 194.582 147.297 203.668 147.594 212.746C149.475 213.801 151.356 214.852 153.24 215.907C153.308 214.019 153.488 212.127 153.417 210.246C153.192 204.438 152.974 198.629 152.535 192.836C152.317 189.957 153.353 189.671 155.827 190.31C162.011 191.913 168.251 193.283 174.464 194.774C179.675 196.024 179.732 196.035 179.292 190.452C178.816 184.366 178.343 178.277 177.595 172.221C177.212 169.112 178.335 168.403 181.218 168.504C187.92 168.737 194.633 168.707 201.342 168.74C202.491 168.748 203.644 168.541 204.792 168.436C204.323 167.239 203.929 166.004 203.351 164.858C202.949 164.081 202.296 163.432 201.759 162.726Z" fill="#E5180A"/>
<path d="M51.1276 19.0331C46.7575 29.797 41.3436 39.5134 28.6912 42.3518C21.7005 43.9211 16.801 42.3743 12.8701 36.4461C10.3396 32.6316 8.43984 28.3966 6.13462 24.4244C5.52641 23.377 4.45644 22.5923 3.60044 21.6875C6.17221 31.4377 8.4699 41.2705 11.4059 50.9081C13.7599 58.6309 14.0678 58.4132 21.8131 55.8527C38.0172 50.4951 48.1166 38.5148 56.3538 24.4357C57.3337 22.7612 57.5627 21.4434 55.2425 20.7226C53.8345 20.2871 52.498 19.6075 51.1276 19.0331Z" fill="#BB1600"/>
<path d="M151.881 113.288C145.071 114.737 139.619 113.213 135.921 106.995C134.686 104.916 133.098 104.75 131.315 106.759C129.839 108.422 128.067 109.834 126.355 111.272C120.577 116.126 116.203 116.126 110.511 111.016C105.74 106.729 101.077 102.314 96.5111 97.8047C86.9486 88.3586 77.6226 78.6721 67.9287 69.3649C62.2445 63.9097 62.1995 57.9139 67.8124 52.8718C72.6931 48.4866 72.4716 48.2463 67.0915 44.3567C61.9404 40.6324 62.2821 40.8839 58.6441 45.8623C54.8033 51.1147 50.3168 55.9091 45.9316 60.741C42.8304 64.1613 39.1924 67.116 36.2602 70.664C34.7359 72.5111 33.8498 75.1167 33.3693 77.5158C33.0501 79.1077 33.9663 80.9473 34.3304 82.6781C35.4943 81.9047 36.6619 81.1425 37.8145 80.3616C41.1973 78.0714 45.6312 78.4731 48.7887 81.717C56.0723 89.207 63.3221 96.7347 70.3991 104.42C77.1646 111.767 83.7349 119.299 90.3239 126.808C96.5787 133.937 96.5186 138.382 89.7269 144.818C87.1513 147.258 87.0913 148.23 90.3989 149.965C109.742 160.109 127.012 158.138 143.317 142.997C151.217 135.66 155.711 125.982 159.293 115.923C160.051 113.795 159.003 113.247 157.13 113.28C155.339 113.314 153.548 113.288 151.881 113.288Z" fill="#E4E4E4"/>
<path d="M119.255 112.128C121.516 110.431 123.644 109.147 125.386 107.465C131.345 101.713 131.521 101.413 125.499 95.8599C109.621 81.2252 93.5151 66.842 77.54 52.3124C75.5727 50.5253 74.3487 50.728 72.464 52.6803C64.5197 60.91 64.4145 60.8575 72.4865 68.7568C85.8185 81.7996 99.1429 94.8462 112.576 107.784C114.318 109.458 116.684 110.487 119.255 112.128Z" fill="#E4E4E4"/>
<path d="M92.0736 136.137C90.5005 133.509 89.6896 131.538 88.353 130.025C81.366 122.092 74.2702 114.253 67.1668 106.425C60.4577 99.036 53.6509 91.7374 46.9755 84.3187C44.5765 81.6531 42.2112 81.0336 39.2414 83.3576C36.512 85.4939 35.2918 87.3861 37.2178 91.1818C44.3437 105.212 52.9038 118.24 63.8441 129.518C68.999 134.831 75.1224 139.193 80.7916 144.01C82.789 145.707 84.4409 145.459 86.0441 143.417C87.9851 140.95 90.0462 138.578 92.0736 136.137Z" fill="#E4E4E4"/>
</svg>
