<?xml version="1.0" standalone="no"?>
<!DOCTYPE svg PUBLIC "-//W3C//DTD SVG 20010904//EN"
 "http://www.w3.org/TR/2001/REC-SVG-20010904/DTD/svg10.dtd">
<svg version="1.0" xmlns="http://www.w3.org/2000/svg"
 width="700.000000pt" height="700.000000pt" viewBox="0 0 700.000000 700.000000"
 preserveAspectRatio="xMidYMid meet">
<metadata>
Created by potrace 1.11, written by Peter Selinger 2001-2013
</metadata>
<g transform="translate(0.000000,700.000000) scale(0.100000,-0.100000)"
fill="#000000" stroke="none">
<path d="M3452 6561 c-324 -509 -632 -1077 -836 -1541 -74 -167 -456 -1110
-561 -1382 -121 -314 -282 -807 -344 -1056 -90 -356 -145 -713 -167 -1075 l-7
-119 29 15 c16 8 229 124 473 256 244 133 446 239 449 237 2 -3 -12 -377 -33
-831 -20 -455 -35 -828 -33 -830 2 -2 180 106 396 241 216 134 396 244 400
244 5 0 102 -106 216 -235 114 -129 211 -235 214 -234 4 0 97 112 207 249 122
152 205 248 213 245 7 -3 170 -111 362 -240 192 -129 354 -235 360 -235 9 0
10 19 6 68 -3 37 -8 366 -11 732 -3 366 -8 709 -11 763 -4 65 -3 97 4 97 8 0
848 -318 1046 -396 24 -9 24 -11 -79 351 -457 1600 -1104 3124 -1823 4295
-116 190 -351 540 -362 540 -4 0 -53 -72 -108 -159z m632 -1212 c55 -136 141
-397 134 -405 -3 -2 -12 22 -22 54 -10 31 -53 152 -96 267 -43 116 -81 219
-85 230 -19 57 20 -26 69 -146z m-442 60 c166 -35 304 -167 407 -391 40 -86
107 -285 99 -293 -2 -2 -50 -9 -107 -14 -128 -12 -199 -43 -239 -104 l-27 -41
1 -185 c1 -164 34 -695 93 -1496 12 -163 24 -263 33 -286 37 -86 121 -147 235
-169 72 -14 72 -11 7 -145 -47 -98 -143 -232 -240 -335 -108 -114 -287 -203
-464 -231 -141 -22 -416 2 -530 47 -65 25 -175 99 -210 142 l-30 37 0 207 c0
115 3 208 6 208 38 0 381 55 419 67 107 34 173 105 195 208 9 44 23 345 60
1265 6 146 12 348 13 450 2 172 1 188 -19 225 -48 89 -108 114 -302 126 -114
7 -147 7 -154 -3 -4 -7 -8 -8 -8 -3 0 23 93 365 132 485 l43 132 60 24 c166
68 398 100 527 73z m597 -529 c0 -9 -4 -8 -9 5 -5 11 -9 27 -9 35 0 9 4 8 9
-5 5 -11 9 -27 9 -35z m-50 -335 c53 -305 76 -774 67 -1360 -6 -403 -14 -548
-37 -674 l-12 -64 -53 6 c-63 6 -139 38 -176 74 -67 64 -67 65 -148 1273 -50
750 -49 756 12 819 41 41 96 59 213 68 84 7 101 6 106 -7 4 -8 16 -69 28 -135z
m-1076 126 c121 -11 178 -40 208 -104 29 -64 25 -223 -31 -1497 l-20 -445 -28
-55 c-22 -43 -39 -62 -81 -87 -61 -37 -92 -44 -323 -76 l-168 -23 0 100 c1
419 33 1099 66 1366 35 285 121 790 141 823 6 9 114 8 236 -2z m-436 -2963
c-2 -24 -4 -5 -4 42 0 47 2 66 4 43 2 -24 2 -62 0 -85z m1903 -480 c0 -183 3
-350 7 -372 4 -26 3 -37 -5 -35 -6 2 -114 97 -239 211 -125 113 -231 208 -234
210 -4 2 -112 -99 -241 -224 l-234 -226 -245 224 -244 224 -226 -232 -226
-232 -6 214 c-4 117 -7 284 -7 371 l0 158 31 -9 c57 -16 282 -59 404 -77 89
-12 184 -17 365 -16 333 0 585 30 924 108 77 18 149 33 159 34 16 1 17 -21 17
-331z m-89 -505 c13 -16 12 -17 -3 -4 -17 13 -22 21 -14 21 2 0 10 -8 17 -17z
m69 -58 c13 -14 21 -25 18 -25 -2 0 -15 11 -28 25 -13 14 -21 25 -18 25 2 0
15 -11 28 -25z"/>
</g>
</svg>
